<svg width="48" height="48" viewBox="0 0 48 48" fill="none" xmlns="http://www.w3.org/2000/svg">
  <rect width="48" height="48" rx="6" fill="#374151"/>
  <path d="M24 12C18.48 12 14 16.48 14 22C14 27.52 18.48 32 24 32C29.52 32 34 27.52 34 22C34 16.48 29.52 12 24 12ZM24 18C25.66 18 27 19.34 27 21C27 22.66 25.66 24 24 24C22.34 24 21 22.66 21 21C21 19.34 22.34 18 24 18ZM24 29.2C20.5 29.2 17.29 27.92 15 25.98C15.03 24 19 22.9 24 22.9C29 22.9 32.97 24 33 25.98C30.71 27.92 27.5 29.2 24 29.2Z" fill="#9CA3AF"/>
  <rect x="14" y="34" width="20" height="4" rx="2" fill="#6B7280"/>
</svg>